<svg id="_fxbw3q0" xmlns="http://www.w3.org/2000/svg" viewBox="0 553.17 261.002 367.735" width="261" height="367.72329545454545">
  <path d="M5.028 587.389c-3.681 13.696-3.732 28.115-3.779 42.061-0.017 5.105-0.035 10.388-0.231 15.546-0.085 12.869-0.19 25.961-0.292 38.623C0.368 727.507-0.001 772.893 0.473 817.532c0.052 2.658 0.085 5.389 0.12 8.286 0.222 18.609 0.499 41.771 6.712 60.076 7.235 21.326 21.037 32.198 42.195 33.235 31.441 1.126 63.462 0.934 94.429 0.747 18.703-0.112 38.045-0.23 57.057-0.056 9.329-0.013 16.747-0.977 23.335-3.027 10.839-2.887 19.324-10.214 25.227-21.782 4.575-8.966 7.542-20.273 8.818-33.607 1.253-10.582 1.56-21.414 1.857-31.887l0.027-0.941c0.728-74.769 0.664-147.445-0.197-216.002h0s0-0.007 0-0.007c0.117-8.662-0.901-21.476-6.427-33.341-5.279-11.334-13.345-18.908-23.974-22.514-4.515-1.731-9.426-2.714-15.026-3.014-33.248-0.195-67.068-0.159-99.775-0.125-21.281 0.022-43.289 0.047-64.932 0.006h-0.143c-9.94 0.182-19.886 3.597-28.002 9.608-8.293 6.146-14.238 14.739-16.743 24.2ZM31.393 641.831c0-1.233 0.167-2.536 1.143-3.432v-12.199c-0.387-0.336-0.616-0.822-0.661-1.417 0-0.01 0-0.02 0-0.033 0.123-2.5 0.043-5.33-0.043-8.323-0.3-10.58-0.641-22.571 7.436-28.454 2.983-2.224 6.466-3.31 10.648-3.321 9.104-0.067 18.363-0.035 27.317-0.004 12.671 0.043 25.776 0.087 38.653-0.144 0.659-0.035 1.435 0.291 1.917 0.809 0.015 0.015 0.028 0.032 0.04 0.047h4.41c0.359-0.69 1.078-1.16 1.909-1.16h18.024c0.831 0 1.55 0.473 1.909 1.16h5.037c0.434-0.488 0.998-0.739 1.685-0.74 5.825 0 11.747-0.017 17.475-0.032 15.384-0.043 31.289-0.087 46.923 0.182 7.208 0.78 11.877 4.508 13.896 11.085 0.002 0.01 0.005 0.017 0.007 0.027 1.258 6.649 1.053 13.583 0.856 20.288-0.087 2.967-0.177 6.034-0.137 9.019 0.028 0.58-0.202 1.111-0.614 1.42v11.344c1.073 0.319 2.052 1.215 2.051 3.733v44.762c0 43.763-0.002 89.017 0.008 133.527 0 2.276-0.165 3.028-2.059 3.51v11.411c0.38 0.328 0.581 0.84 0.614 1.562 0.185 4.872 0.162 9.823 0.142 14.609-0.01 2.503-0.022 5.091-0.005 7.634 0.442 7.11-1.216 12.818-4.789 16.49-2.95 3.031-7.071 4.563-12.254 4.562-0.294 0-0.592-0.005-0.891-0.015-16.457 0.015-33.198 0.013-49.388 0.01h-11.835c-1.163 0-1.874-0.219-2.304-0.707-0.117-0.135-0.212-0.289-0.284-0.466h-4.5c-0.392 0.401-0.936 0.653-1.543 0.653h-18.024c-0.604 0-1.151-0.251-1.542-0.653h-4.667c-0.085 0.195-0.192 0.364-0.327 0.508-0.442 0.471-1.143 0.683-2.269 0.683h-0.047c-8.441-0.045-17.024-0.025-25.325-0.005-4.612 0.01-9.281 0.022-13.973 0.022-9.194 0-18.491-0.043-27.683-0.207-5.563-0.1-10.05-2.565-12.972-7.128-2.406-3.753-2.75-8.037-2.773-11.735l-0.013-1.997c-0.035-5.609-0.067-11.364 0.023-17.095-0.035-0.043-0.06-0.094-0.06-0.154v-18.415c-0.689-0.514-1.145-1.384-1.146-2.93 0.025-56.996 0.025-115.314 0-178.287Z" fill="#F5DC68" stroke="#1B1819" stroke-miterlimit="10" />
  <g>
    <path d="M231.025 641.2c0 59.733-0.007 119.466 0.007 179.201 0 2.663-0.152 3.081-3.461 3.592-3.304 0.508-6.616 0.293-9.915-0.135-1.46-0.19-2.209-1.061-2.3-2.591-0.005-60.214 0-120.427 0-180.641 0-2.06 0.702-3.172 2.731-3.172 2.374 0 6.826 0.067 9.424 0.069 1.527 0 3.516 0.055 3.516 3.682Z" fill="#F5DC68" />
    <path d="M223.485 824.534c-2.151 0-4.17-0.213-5.862-0.433-1.57-0.205-2.416-1.154-2.516-2.824-0.005-35.96-0.002-71.907-0.002-107.853 0-24.269 0-48.536 0-72.805 0-2.336 0.946-3.422 2.979-3.422 1.16 0 2.79 0.015 4.516 0.033 1.762 0.017 3.584 0.035 4.909 0.035 1.408 0 3.766 0 3.765 3.932v44.991c0 43.987-0.002 89.472 0.008 134.211 0 2.819-0.25 3.309-3.674 3.837-1.393 0.215-2.782 0.298-4.123 0.298ZM218.087 637.7c-1.762 0-2.481 0.846-2.481 2.921 0 24.267 0 48.536 0 72.805 0 35.947 0 71.892 0 107.839 0.085 1.419 0.747 2.168 2.082 2.343 2.71 0.353 6.279 0.686 9.845 0.137 3.252-0.501 3.252-0.879 3.252-3.344-0.01-44.736-0.01-90.223-0.007-134.21v-44.991c0-3.432-1.812-3.432-3.267-3.432-1.328 0-3.152-0.017-4.914-0.036-1.722-0.017-3.35-0.032-4.51-0.032Z" fill="#1B1819" />
  </g>
  <g>
    <path d="M34.106 637.307c-2.007 0.618-2.464 2.103-2.464 4.038 0.022 59.733 0.025 119.466 0 179.201 0 2.761 1.455 3.236 3.328 3.453 3.497 0.295 7.018 0.31 10.489-0.181 1.038-0.028 1.882-1.134 2.006-2.263 0.017-60.209 0-120.43 0.006-180.641 0-2.481-0.974-3.494-3.449-3.604-3.242-0.343-6.637-0.015-9.774 0" fill="#F5DC68" />
    <path d="M39.666 824.456c-1.503 0-3.07-0.07-4.719-0.21-1.804-0.208-3.557-0.666-3.556-3.702 0.025-57.287 0.025-115.904 0-179.199 0-1.712 0.312-3.557 2.638-4.276l0.147 0.478c-1.625 0.501-2.289 1.602-2.286 3.798 0.025 63.295 0.025 121.911 0 179.201 0 2.633 1.345 3.001 3.107 3.205 3.851 0.325 7.265 0.268 10.427-0.181h0.028c0.918-0.028 1.652-1.069 1.764-2.03 0.01-35.842 0.007-72.287 0.005-107.533 0-24.364-0.002-48.731 0-73.095 0-2.343-0.871-3.251-3.212-3.355-2.229-0.235-4.53-0.153-6.753-0.075-0.996 0.035-2.024 0.07-3.008 0.075v-0.501c0.974-0.005 1.952-0.04 2.99-0.074 2.241-0.078 4.56-0.16 6.808 0.078 2.605 0.115 3.674 1.232 3.674 3.852 0 24.364 0 48.729 0 73.095 0 35.251 0.005 71.701-0.005 107.546v0.027c-0.132 1.164-1.021 2.443-2.236 2.486-1.842 0.26-3.769 0.39-5.815 0.39Z" fill="#1B1819" />
  </g>
</svg>